<mxfile host="app.diagrams.net" modified="2021-06-04T15:58:54.031Z" agent="5.0 (Windows NT 10.0; Win64; x64) AppleWebKit/537.36 (KHTML, like Gecko) Chrome/88.0.4324.182 Safari/537.36" etag="j2cCzRX8zHIjd36HkIfN" version="14.7.5" type="github">
  <diagram id="lwtEDbRVN-xB4T3-QxCQ" name="Page-1">
    <mxGraphModel dx="1241" dy="745" grid="1" gridSize="10" guides="1" tooltips="1" connect="1" arrows="1" fold="1" page="1" pageScale="1" pageWidth="3300" pageHeight="4681" math="0" shadow="0">
      <root>
        <mxCell id="0" />
        <mxCell id="1" parent="0" />
        <mxCell id="4hAsbZaLSSAf6A-Fuyxp-10" value="" style="group" parent="1" vertex="1" connectable="0">
          <mxGeometry x="425" y="350" width="230" height="90" as="geometry" />
        </mxCell>
        <mxCell id="4hAsbZaLSSAf6A-Fuyxp-3" value="" style="shape=hexagon;perimeter=hexagonPerimeter2;whiteSpace=wrap;html=1;fixedSize=1;" parent="4hAsbZaLSSAf6A-Fuyxp-10" vertex="1">
          <mxGeometry width="230.00000000000003" height="90" as="geometry" />
        </mxCell>
        <mxCell id="4hAsbZaLSSAf6A-Fuyxp-4" value="i" style="text;html=1;strokeColor=none;fillColor=none;align=center;verticalAlign=middle;whiteSpace=wrap;rounded=0;" parent="4hAsbZaLSSAf6A-Fuyxp-10" vertex="1">
          <mxGeometry x="87.61904761904762" width="43.80952380952381" height="20" as="geometry" />
        </mxCell>
        <mxCell id="4hAsbZaLSSAf6A-Fuyxp-5" value="0" style="text;html=1;strokeColor=none;fillColor=none;align=center;verticalAlign=middle;whiteSpace=wrap;rounded=0;" parent="4hAsbZaLSSAf6A-Fuyxp-10" vertex="1">
          <mxGeometry x="10.952380952380953" y="35" width="43.80952380952381" height="20" as="geometry" />
        </mxCell>
        <mxCell id="4hAsbZaLSSAf6A-Fuyxp-6" value="1" style="text;html=1;strokeColor=none;fillColor=none;align=center;verticalAlign=middle;whiteSpace=wrap;rounded=0;" parent="4hAsbZaLSSAf6A-Fuyxp-10" vertex="1">
          <mxGeometry x="87.61904761904762" y="70" width="43.80952380952381" height="20" as="geometry" />
        </mxCell>
        <mxCell id="4hAsbZaLSSAf6A-Fuyxp-7" value="&amp;lt; range(11)" style="text;html=1;strokeColor=none;fillColor=none;align=center;verticalAlign=middle;whiteSpace=wrap;rounded=0;" parent="4hAsbZaLSSAf6A-Fuyxp-10" vertex="1">
          <mxGeometry x="145" y="35" width="68.1" height="20" as="geometry" />
        </mxCell>
        <mxCell id="seyrnWr0ilwIP1S3ZuyP-13" style="edgeStyle=orthogonalEdgeStyle;rounded=0;orthogonalLoop=1;jettySize=auto;html=1;exitX=0.5;exitY=1;exitDx=0;exitDy=0;" parent="1" source="4hAsbZaLSSAf6A-Fuyxp-17" target="4hAsbZaLSSAf6A-Fuyxp-4" edge="1">
          <mxGeometry relative="1" as="geometry" />
        </mxCell>
        <mxCell id="4hAsbZaLSSAf6A-Fuyxp-17" value="PRINT(&quot;\n&quot;)" style="rounded=1;whiteSpace=wrap;html=1;" parent="1" vertex="1">
          <mxGeometry x="420" y="260" width="230" height="40" as="geometry" />
        </mxCell>
        <mxCell id="seyrnWr0ilwIP1S3ZuyP-15" value="" style="edgeStyle=orthogonalEdgeStyle;rounded=0;orthogonalLoop=1;jettySize=auto;html=1;" parent="1" source="4hAsbZaLSSAf6A-Fuyxp-18" target="4hAsbZaLSSAf6A-Fuyxp-20" edge="1">
          <mxGeometry relative="1" as="geometry" />
        </mxCell>
        <mxCell id="JaCdbUTixOH0e9Q2p9va-5" style="edgeStyle=orthogonalEdgeStyle;rounded=0;orthogonalLoop=1;jettySize=auto;html=1;entryX=0.5;entryY=1;entryDx=0;entryDy=0;endFill=1;" parent="1" source="4hAsbZaLSSAf6A-Fuyxp-18" target="JaCdbUTixOH0e9Q2p9va-4" edge="1">
          <mxGeometry relative="1" as="geometry" />
        </mxCell>
        <mxCell id="4hAsbZaLSSAf6A-Fuyxp-18" value="i ==3" style="rhombus;whiteSpace=wrap;html=1;" parent="1" vertex="1">
          <mxGeometry x="485" y="490" width="110" height="100" as="geometry" />
        </mxCell>
        <mxCell id="seyrnWr0ilwIP1S3ZuyP-42" style="edgeStyle=orthogonalEdgeStyle;rounded=0;orthogonalLoop=1;jettySize=auto;html=1;exitX=0;exitY=0.5;exitDx=0;exitDy=0;" parent="1" edge="1">
          <mxGeometry relative="1" as="geometry">
            <mxPoint x="200" y="415" as="targetPoint" />
            <Array as="points">
              <mxPoint x="425" y="670" />
              <mxPoint x="200" y="670" />
            </Array>
            <mxPoint x="425" y="665" as="sourcePoint" />
          </mxGeometry>
        </mxCell>
        <mxCell id="4hAsbZaLSSAf6A-Fuyxp-20" value="PRINT(data_clients[0][i] + &quot;: &quot; + user_data[i])" style="rounded=1;whiteSpace=wrap;html=1;" parent="1" vertex="1">
          <mxGeometry x="425" y="650" width="230" height="40" as="geometry" />
        </mxCell>
        <mxCell id="seyrnWr0ilwIP1S3ZuyP-17" value="" style="edgeStyle=orthogonalEdgeStyle;rounded=0;orthogonalLoop=1;jettySize=auto;html=1;" parent="1" source="seyrnWr0ilwIP1S3ZuyP-1" target="seyrnWr0ilwIP1S3ZuyP-3" edge="1">
          <mxGeometry relative="1" as="geometry" />
        </mxCell>
        <mxCell id="seyrnWr0ilwIP1S3ZuyP-1" value="menu = [&quot;Edit&quot;, &quot;Return&quot;]" style="rounded=1;whiteSpace=wrap;html=1;" parent="1" vertex="1">
          <mxGeometry x="425" y="750" width="230" height="40" as="geometry" />
        </mxCell>
        <mxCell id="seyrnWr0ilwIP1S3ZuyP-35" value="" style="edgeStyle=orthogonalEdgeStyle;rounded=0;orthogonalLoop=1;jettySize=auto;html=1;" parent="1" source="seyrnWr0ilwIP1S3ZuyP-2" target="seyrnWr0ilwIP1S3ZuyP-7" edge="1">
          <mxGeometry relative="1" as="geometry" />
        </mxCell>
        <mxCell id="7FatE325lh4cRFGbNT5i-2" value="" style="edgeStyle=orthogonalEdgeStyle;rounded=0;orthogonalLoop=1;jettySize=auto;html=1;" edge="1" parent="1" source="seyrnWr0ilwIP1S3ZuyP-2" target="7FatE325lh4cRFGbNT5i-1">
          <mxGeometry relative="1" as="geometry" />
        </mxCell>
        <mxCell id="seyrnWr0ilwIP1S3ZuyP-2" value="choice == &#39;1&#39; or choice == &#39;2&#39;" style="rhombus;whiteSpace=wrap;html=1;" parent="1" vertex="1">
          <mxGeometry x="434.5" y="1200" width="210" height="110" as="geometry" />
        </mxCell>
        <mxCell id="JaCdbUTixOH0e9Q2p9va-2" value="" style="edgeStyle=orthogonalEdgeStyle;rounded=0;orthogonalLoop=1;jettySize=auto;html=1;endFill=1;" parent="1" source="seyrnWr0ilwIP1S3ZuyP-3" target="JaCdbUTixOH0e9Q2p9va-1" edge="1">
          <mxGeometry relative="1" as="geometry" />
        </mxCell>
        <mxCell id="seyrnWr0ilwIP1S3ZuyP-3" value="PRINT(&quot;\n&quot;)" style="rounded=1;whiteSpace=wrap;html=1;" parent="1" vertex="1">
          <mxGeometry x="425" y="830" width="230" height="40" as="geometry" />
        </mxCell>
        <mxCell id="seyrnWr0ilwIP1S3ZuyP-20" value="" style="edgeStyle=orthogonalEdgeStyle;rounded=0;orthogonalLoop=1;jettySize=auto;html=1;" parent="1" source="seyrnWr0ilwIP1S3ZuyP-5" target="seyrnWr0ilwIP1S3ZuyP-6" edge="1">
          <mxGeometry relative="1" as="geometry" />
        </mxCell>
        <mxCell id="seyrnWr0ilwIP1S3ZuyP-5" value="PRINT(&quot;Please Select: &quot;)" style="rounded=1;whiteSpace=wrap;html=1;" parent="1" vertex="1">
          <mxGeometry x="425" y="1010" width="230" height="40" as="geometry" />
        </mxCell>
        <mxCell id="seyrnWr0ilwIP1S3ZuyP-21" value="" style="edgeStyle=orthogonalEdgeStyle;rounded=0;orthogonalLoop=1;jettySize=auto;html=1;" parent="1" source="seyrnWr0ilwIP1S3ZuyP-6" target="seyrnWr0ilwIP1S3ZuyP-2" edge="1">
          <mxGeometry relative="1" as="geometry" />
        </mxCell>
        <mxCell id="seyrnWr0ilwIP1S3ZuyP-6" value="READ choice" style="shape=parallelogram;perimeter=parallelogramPerimeter;whiteSpace=wrap;html=1;fixedSize=1;" parent="1" vertex="1">
          <mxGeometry x="425" y="1100" width="229" height="50" as="geometry" />
        </mxCell>
        <mxCell id="seyrnWr0ilwIP1S3ZuyP-36" style="edgeStyle=orthogonalEdgeStyle;rounded=0;orthogonalLoop=1;jettySize=auto;html=1;exitX=0.5;exitY=0;exitDx=0;exitDy=0;entryX=0;entryY=0.5;entryDx=0;entryDy=0;" parent="1" source="seyrnWr0ilwIP1S3ZuyP-7" target="seyrnWr0ilwIP1S3ZuyP-3" edge="1">
          <mxGeometry relative="1" as="geometry" />
        </mxCell>
        <mxCell id="seyrnWr0ilwIP1S3ZuyP-7" value="PRINT(&quot;Error!&quot;)" style="rounded=1;whiteSpace=wrap;html=1;" parent="1" vertex="1">
          <mxGeometry x="150" y="1235" width="230" height="40" as="geometry" />
        </mxCell>
        <mxCell id="seyrnWr0ilwIP1S3ZuyP-24" style="edgeStyle=orthogonalEdgeStyle;rounded=0;orthogonalLoop=1;jettySize=auto;html=1;exitX=1;exitY=0.5;exitDx=0;exitDy=0;entryX=0;entryY=0.5;entryDx=0;entryDy=0;" parent="1" source="seyrnWr0ilwIP1S3ZuyP-8" target="seyrnWr0ilwIP1S3ZuyP-9" edge="1">
          <mxGeometry relative="1" as="geometry" />
        </mxCell>
        <mxCell id="DkZJO_LsvSG8MK6_0E9L-5" value="" style="edgeStyle=orthogonalEdgeStyle;rounded=0;orthogonalLoop=1;jettySize=auto;html=1;endFill=1;" parent="1" source="seyrnWr0ilwIP1S3ZuyP-8" target="DkZJO_LsvSG8MK6_0E9L-4" edge="1">
          <mxGeometry relative="1" as="geometry" />
        </mxCell>
        <mxCell id="seyrnWr0ilwIP1S3ZuyP-8" value="choice == &#39;1&#39;" style="rhombus;whiteSpace=wrap;html=1;" parent="1" vertex="1">
          <mxGeometry x="484" y="1470" width="110" height="100" as="geometry" />
        </mxCell>
        <mxCell id="seyrnWr0ilwIP1S3ZuyP-25" style="edgeStyle=orthogonalEdgeStyle;rounded=0;orthogonalLoop=1;jettySize=auto;html=1;exitX=0.5;exitY=1;exitDx=0;exitDy=0;entryX=0.5;entryY=0;entryDx=0;entryDy=0;" parent="1" source="seyrnWr0ilwIP1S3ZuyP-9" target="seyrnWr0ilwIP1S3ZuyP-11" edge="1">
          <mxGeometry relative="1" as="geometry" />
        </mxCell>
        <mxCell id="seyrnWr0ilwIP1S3ZuyP-9" value="choice == &#39;2&#39;" style="rhombus;whiteSpace=wrap;html=1;" parent="1" vertex="1">
          <mxGeometry x="800" y="1470" width="110" height="100" as="geometry" />
        </mxCell>
        <mxCell id="seyrnWr0ilwIP1S3ZuyP-11" value="RETURN" style="ellipse;whiteSpace=wrap;html=1;" parent="1" vertex="1">
          <mxGeometry x="810" y="1620" width="90" height="80" as="geometry" />
        </mxCell>
        <mxCell id="seyrnWr0ilwIP1S3ZuyP-14" value="" style="edgeStyle=orthogonalEdgeStyle;rounded=0;orthogonalLoop=1;jettySize=auto;html=1;" parent="1" source="4hAsbZaLSSAf6A-Fuyxp-3" target="4hAsbZaLSSAf6A-Fuyxp-18" edge="1">
          <mxGeometry relative="1" as="geometry" />
        </mxCell>
        <mxCell id="seyrnWr0ilwIP1S3ZuyP-28" value="True" style="text;html=1;align=center;verticalAlign=middle;resizable=0;points=[];autosize=1;strokeColor=none;" parent="1" vertex="1">
          <mxGeometry x="445" y="510" width="40" height="20" as="geometry" />
        </mxCell>
        <mxCell id="seyrnWr0ilwIP1S3ZuyP-29" value="False" style="text;html=1;align=center;verticalAlign=middle;resizable=0;points=[];autosize=1;strokeColor=none;" parent="1" vertex="1">
          <mxGeometry x="540" y="590" width="40" height="20" as="geometry" />
        </mxCell>
        <mxCell id="seyrnWr0ilwIP1S3ZuyP-34" value="False" style="text;html=1;align=center;verticalAlign=middle;resizable=0;points=[];autosize=1;strokeColor=none;" parent="1" vertex="1">
          <mxGeometry x="394.5" y="1220" width="40" height="20" as="geometry" />
        </mxCell>
        <mxCell id="seyrnWr0ilwIP1S3ZuyP-38" value="True" style="text;html=1;align=center;verticalAlign=middle;resizable=0;points=[];autosize=1;strokeColor=none;" parent="1" vertex="1">
          <mxGeometry x="554" y="1320" width="40" height="20" as="geometry" />
        </mxCell>
        <mxCell id="seyrnWr0ilwIP1S3ZuyP-43" style="edgeStyle=orthogonalEdgeStyle;rounded=0;orthogonalLoop=1;jettySize=auto;html=1;exitX=1;exitY=0.5;exitDx=0;exitDy=0;entryX=0.5;entryY=0;entryDx=0;entryDy=0;" parent="1" source="4hAsbZaLSSAf6A-Fuyxp-3" target="seyrnWr0ilwIP1S3ZuyP-1" edge="1">
          <mxGeometry relative="1" as="geometry">
            <Array as="points">
              <mxPoint x="750" y="395" />
              <mxPoint x="750" y="720" />
              <mxPoint x="540" y="720" />
            </Array>
          </mxGeometry>
        </mxCell>
        <mxCell id="hwVHAj5IbDsBxLXs_6I--2" value="True" style="text;html=1;align=center;verticalAlign=middle;resizable=0;points=[];autosize=1;strokeColor=none;" parent="1" vertex="1">
          <mxGeometry x="540" y="1570" width="40" height="20" as="geometry" />
        </mxCell>
        <mxCell id="hwVHAj5IbDsBxLXs_6I--3" value="False" style="text;html=1;align=center;verticalAlign=middle;resizable=0;points=[];autosize=1;strokeColor=none;" parent="1" vertex="1">
          <mxGeometry x="594" y="1490" width="40" height="20" as="geometry" />
        </mxCell>
        <mxCell id="hwVHAj5IbDsBxLXs_6I--4" value="True" style="text;html=1;align=center;verticalAlign=middle;resizable=0;points=[];autosize=1;strokeColor=none;" parent="1" vertex="1">
          <mxGeometry x="860" y="1570" width="40" height="20" as="geometry" />
        </mxCell>
        <mxCell id="DkZJO_LsvSG8MK6_0E9L-2" value="" style="edgeStyle=orthogonalEdgeStyle;rounded=0;orthogonalLoop=1;jettySize=auto;html=1;endArrow=classic;endFill=1;" parent="1" source="DkZJO_LsvSG8MK6_0E9L-1" target="4hAsbZaLSSAf6A-Fuyxp-17" edge="1">
          <mxGeometry relative="1" as="geometry" />
        </mxCell>
        <mxCell id="DkZJO_LsvSG8MK6_0E9L-1" value="FUNCTION profile_menu(user_data, data_clients, login_index, space_clients)" style="shape=process;whiteSpace=wrap;html=1;backgroundOutline=1;" parent="1" vertex="1">
          <mxGeometry x="390" y="110" width="290" height="100" as="geometry" />
        </mxCell>
        <mxCell id="DkZJO_LsvSG8MK6_0E9L-6" style="edgeStyle=orthogonalEdgeStyle;rounded=0;orthogonalLoop=1;jettySize=auto;html=1;endFill=1;exitX=0;exitY=0.5;exitDx=0;exitDy=0;" parent="1" source="DkZJO_LsvSG8MK6_0E9L-4" edge="1">
          <mxGeometry relative="1" as="geometry">
            <mxPoint x="539" y="226" as="targetPoint" />
            <Array as="points">
              <mxPoint x="120" y="1655" />
              <mxPoint x="120" y="226" />
            </Array>
          </mxGeometry>
        </mxCell>
        <mxCell id="DkZJO_LsvSG8MK6_0E9L-4" value="edit_profile(user_data, data_clients, login_index, space_clients)" style="shape=process;whiteSpace=wrap;html=1;backgroundOutline=1;horizontal=1;" parent="1" vertex="1">
          <mxGeometry x="436.5" y="1620" width="205" height="70" as="geometry" />
        </mxCell>
        <mxCell id="JaCdbUTixOH0e9Q2p9va-3" value="" style="edgeStyle=orthogonalEdgeStyle;rounded=0;orthogonalLoop=1;jettySize=auto;html=1;endFill=1;" parent="1" source="JaCdbUTixOH0e9Q2p9va-1" target="seyrnWr0ilwIP1S3ZuyP-5" edge="1">
          <mxGeometry relative="1" as="geometry" />
        </mxCell>
        <mxCell id="JaCdbUTixOH0e9Q2p9va-1" value="default.general_menu(menu)" style="shape=process;whiteSpace=wrap;html=1;backgroundOutline=1;" parent="1" vertex="1">
          <mxGeometry x="420" y="900" width="240" height="70" as="geometry" />
        </mxCell>
        <mxCell id="weVIRt_P8CNzWD0nIZ2v-3" style="edgeStyle=orthogonalEdgeStyle;rounded=0;orthogonalLoop=1;jettySize=auto;html=1;endArrow=classic;endFill=1;" parent="1" edge="1">
          <mxGeometry relative="1" as="geometry">
            <mxPoint x="319.5" y="396" as="targetPoint" />
            <mxPoint x="319" y="440" as="sourcePoint" />
            <Array as="points">
              <mxPoint x="319.5" y="426" />
              <mxPoint x="319.5" y="426" />
            </Array>
          </mxGeometry>
        </mxCell>
        <mxCell id="JaCdbUTixOH0e9Q2p9va-4" value="CONTINUE" style="rounded=1;whiteSpace=wrap;html=1;" parent="1" vertex="1">
          <mxGeometry x="247" y="440" width="145" height="40" as="geometry" />
        </mxCell>
        <mxCell id="weVIRt_P8CNzWD0nIZ2v-2" style="edgeStyle=orthogonalEdgeStyle;rounded=0;orthogonalLoop=1;jettySize=auto;html=1;exitX=1;exitY=0.5;exitDx=0;exitDy=0;entryX=0;entryY=0.5;entryDx=0;entryDy=0;endArrow=classic;endFill=1;" parent="1" source="weVIRt_P8CNzWD0nIZ2v-1" target="4hAsbZaLSSAf6A-Fuyxp-3" edge="1">
          <mxGeometry relative="1" as="geometry">
            <Array as="points">
              <mxPoint x="320" y="395" />
              <mxPoint x="320" y="395" />
            </Array>
          </mxGeometry>
        </mxCell>
        <mxCell id="weVIRt_P8CNzWD0nIZ2v-1" value="i" style="ellipse;whiteSpace=wrap;html=1;aspect=fixed;" parent="1" vertex="1">
          <mxGeometry x="180" y="375" width="40" height="40" as="geometry" />
        </mxCell>
        <mxCell id="7FatE325lh4cRFGbNT5i-3" value="" style="edgeStyle=orthogonalEdgeStyle;rounded=0;orthogonalLoop=1;jettySize=auto;html=1;" edge="1" parent="1" source="7FatE325lh4cRFGbNT5i-1" target="seyrnWr0ilwIP1S3ZuyP-8">
          <mxGeometry relative="1" as="geometry" />
        </mxCell>
        <mxCell id="7FatE325lh4cRFGbNT5i-1" value="BREAK" style="rounded=1;whiteSpace=wrap;html=1;" vertex="1" parent="1">
          <mxGeometry x="467" y="1380" width="145" height="40" as="geometry" />
        </mxCell>
      </root>
    </mxGraphModel>
  </diagram>
</mxfile>
